# xmcd CD database file
#
# Track frame offsets:
#	150
#	12617
#	25786
#	37716
#	51406
#	67978
#	84855
#	98099
#	114799
#	124521
#	138123
#	152275
#	162232
#	175429
#	187609
#	200291
#	217535
#	230524
#
# Disc length: 3291 seconds
#
# Revision: 1
# Processed by: cddbd v1.5.2PL0 Copyright (c) Steve Scherf et al.
# Submitted via: CDex 1.70beta2
#
DISCID=ca0cd912
DTITLE=Merle Haggard - Okie From Muskogee (Picture Disc)
DYEAR=1996
DGENRE=Country
TTITLE0=Merle Haggard - Okie From Muskogee
TTITLE1=Merle Haggard - The Fightin' Side Of Me
TTITLE2=Merle Haggard - Carolyn
TTITLE3=Merle Haggard - Cherokee Maiden
TTITLE4=Merle Haggard - Hungry Eyes
TTITLE5=Merle Haggard - Daddy Frank
TTITLE6=Merle Haggard - Kentucky Gambler
TTITLE7=Merle Haggard - Ramblin' Fever
TTITLE8=Merle Haggard - The Legend Of Bonnie And Clyde
TTITLE9=Merle Haggard - The Farmer's Daughter
TTITLE10=Merle Haggard - I Threw Away The Rose
TTITLE11=Merle Haggard - Mama Tried
TTITLE12=Merle Haggard - Misery And Gin
TTITLE13=Merle Haggard - Things Aren't Funny Anymore
TTITLE14=Merle Haggard - The Roots Of My Raising
TTITLE15=Merle Haggard - Today I Started Loving You Again
TTITLE16=Merle Haggard - The Emptiest Arms In The World
TTITLE17=Merle Haggard - It's All In The Movies
EXTD=YEAR: 1996
EXTT0=
EXTT1=
EXTT2=
EXTT3=
EXTT4=
EXTT5=
EXTT6=
EXTT7=
EXTT8=
EXTT9=
EXTT10=
EXTT11=
EXTT12=
EXTT13=
EXTT14=
EXTT15=
EXTT16=
EXTT17=
PLAYORDER=
